<?xml version="1.0" encoding="UTF-8"?>
<svg id="Ebene_3" data-name="Ebene 3" xmlns="http://www.w3.org/2000/svg" viewBox="0 0 1000 1000">
  <defs>
    <style>
      .cls-1 {
        fill: #450b0c;
      }

      .cls-2 {
        fill: #440202;
      }

      .cls-3 {
        fill: #eaa32f;
      }

      .cls-4 {
        fill: #fb9802;
      }

      .cls-5 {
        fill: #f79d0c;
      }

      .cls-6 {
        fill: #dad2c7;
      }

      .cls-7 {
        fill: #fda405;
      }

      .cls-8 {
        fill: #f5a70f;
      }

      .cls-9 {
        fill: #f99c08;
      }

      .cls-10 {
        fill: #fe9800;
      }

      .cls-11 {
        fill: #edc87a;
      }

      .cls-12 {
        fill: #fda104;
      }

      .cls-13 {
        fill: #dbd3c7;
      }

      .cls-14 {
        fill: #fd9801;
      }

      .cls-15 {
        fill: #fda105;
      }

      .cls-16 {
        fill: #f79509;
      }

      .cls-17 {
        fill: #dbc9c2;
      }

      .cls-18 {
        fill: #f18104;
      }

      .cls-19 {
        fill: #e7bb64;
      }

      .cls-20 {
        fill: #eeb234;
      }

      .cls-21 {
        fill: #fd9702;
      }

      .cls-22 {
        fill: #f89909;
      }

      .cls-23 {
        fill: #eaae3f;
      }

      .cls-24 {
        fill: #e8b257;
      }

      .cls-25 {
        fill: #65372e;
      }

      .cls-26 {
        fill: #f99907;
      }

      .cls-27 {
        fill: #fc9903;
      }

      .cls-28 {
        fill: #f8940c;
      }

      .cls-29 {
        fill: #fb9500;
      }

      .cls-30 {
        fill: #fc9e04;
      }

      .cls-31 {
        fill: #fd9901;
      }

      .cls-32 {
        fill: #e0ae5f;
      }

      .cls-33 {
        fill: #fcc768;
      }

      .cls-34 {
        fill: #fb9506;
      }

      .cls-35 {
        fill: #d5cbbf;
      }

      .cls-36 {
        fill: #f79c12;
      }

      .cls-37 {
        fill: #e0b054;
      }

      .cls-38 {
        fill: #dfc197;
      }

      .cls-39 {
        fill: #fc9a07;
      }

      .cls-40 {
        fill: #e4bd70;
      }

      .cls-41 {
        fill: #d6cec2;
      }

      .cls-42 {
        fill: #cf6f93;
      }

      .cls-43 {
        fill: #fc90c2;
      }

      .cls-44 {
        fill: #f29512;
      }

      .cls-45 {
        fill: #e7c782;
      }

      .cls-46 {
        fill: #f79209;
      }

      .cls-47 {
        fill: #f9f0ec;
      }

      .cls-48 {
        fill: #fb9405;
      }

      .cls-49 {
        fill: #621c34;
      }

      .cls-50 {
        fill: #fb9603;
      }

      .cls-51 {
        fill: #8d4e7b;
      }

      .cls-52 {
        fill: #ef9618;
      }

      .cls-53 {
        fill: #fb8a01;
      }

      .cls-54 {
        fill: #fca006;
      }

      .cls-55 {
        fill: #fa9e06;
      }

      .cls-56 {
        fill: #f5980e;
      }

      .cls-57 {
        fill: #f69a0f;
      }

      .cls-58 {
        fill: #d8cfc2;
      }

      .cls-59 {
        fill: #fd9701;
      }

      .cls-60 {
        fill: #f89107;
      }

      .cls-61 {
        fill: #fb9204;
      }
    </style>
  </defs>
  <path class="cls-2" d="M108.05,477.55c-18.65-21.66-32.96-45.48-37.69-74.26-.87-5.32,.17-6.22,5.13-4.68,13.38,4.15,27.01,7.31,40.83,9.63,.92,.15,1.87,.13,2.81,.19-.74-.65-1.41-1.4-2.22-1.95-24.87-16.7-46.49-36.88-64.9-60.49-7.27-9.32-14.5-18.66-21.56-28.14-1.52-2.04-4.4-4.67-2.49-7.14,1.67-2.18,4.92-.34,7.33,.39,23.74,7.27,47.47,14.54,71.16,21.97,37.5,11.76,75.6,21.13,113.95,29.63,44.12,9.77,88.1,20.22,129.88,37.96,16.14,6.86,32.32,13.88,46.31,24.81,1.72,1.34,2.77,.07,3.83-.47,19.75-10.18,40.49-17.76,62.16-22.41,33.28-7.14,66.8-9.89,100.81-4.79,21.7,3.25,42,10,61.18,20.45,1.99,1.08,3.62,.47,5.25-.57,26.41-16.88,55.54-27.37,85.33-36.28,39.43-11.79,79.7-20.19,119.7-29.66,33.74-7.99,66.86-18.07,99.7-29.17,12.7-4.29,25.66-7.81,37.86-13.5,1.09-.51,2.46-.43,3.71-.62-.27,1.05-.47,2.14-.83,3.16-6.39,17.98-17.88,32.79-29.85,47.19-15.41,18.54-34.12,33.51-53.46,47.72-.78,.58-1.36,1.43-2.04,2.15,.93-.09,1.89-.09,2.8-.3,12.94-2.97,25.92-5.76,38.78-9.04,5.5-1.4,6.71,.86,6.43,5.56-.53,8.99-4.46,16.98-7.43,25.23-5.74,15.96-15.94,29.24-26.18,42.46-1.57,3.96-4.09,7.05-8.11,8.75-27.89,26.3-61.82,39.63-98.95,45.99-5.24,.9-10.61,.99-15.9,1.66-1.6,.2-4.23-.5-4.6,1.15-.4,1.77,2.24,2.16,3.66,3,12.26,7.23,25.6,11.99,38.88,16.89,2.14,.79,4.89,1.23,5.22,3.91,.34,2.78-2.14,4.21-4.1,5.67-30.24,22.45-64.33,28.48-100.97,23.63-3-.4-6.16-.36-8.97-1.32-9.58-3.29-17.51-.23-25.91,4.55-20.91,11.9-43.97,18.09-67.29,23.18-38.49,8.4-77.45,14.05-116.66,17.36-40.25,3.39-80.64,6.34-120.97,.74-21.37-2.97-41.79-8.82-59.2-22.45-7.11-5.57-12.19-12.65-15.76-20.84-1.13-2.61-2.55-3.12-5.31-2.63-26.82,4.79-53.41,4.84-79.29-4.96-12.5-4.73-24.03-11.24-33.93-20.41-2.2-2.03-2.9-2.79,.64-4.32,14.57-6.28,29.84-10.98,43.61-19.07,1.15-.68,3.1-.91,2.82-2.68-.07-.45-2.22-.72-3.44-.84-24.71-2.43-48.75-7.58-71.57-17.66-14.74-6.51-28.22-15.08-40.68-25.26-4.52-1.59-7.41-4.89-9.49-9.04Z"/>
  <path class="cls-61" d="M120.99,788.2c-.57-.18-1.01-.32-1.46-.45,.54-.64,.98-1.43,1.65-1.91,13.15-9.46,24.86-20.58,36.69-31.59,18.17-16.92,36.58-33.58,54.75-50.5,18.91-17.6,37.87-35.15,58.58-50.62,7.59-5.67,16.02-10.22,24.12-15.21,1.95-1.2,4.41-1.67,6.09-.05,1.55,1.49-.7,2.5-1.58,3.3-28.05,25.35-55.37,51.49-84.12,76.06-22.91,19.58-45.94,39.03-68.92,58.53-4.61,3.92-10.03,6.7-14.55,10.85-2.95,2.71-7.62-.11-11.26,1.59Z"/>
  <path class="cls-50" d="M593.31,57.72c5.26,.14,8.71,5.98,7.3,11.5-5.96,23.48-11.92,46.95-17.89,70.42-8.28,32.54-16.18,65.18-25.91,97.33-1.11,3.67-2.41,7.19-6.17,8.95-.8,.38-2.11,.5-2.8,.09-1.04-.63-.45-1.81,0-2.72,11.09-22.34,10.71-47.34,16.32-70.96,6.95-29.28,12.69-58.85,18.75-88.34,1.21-5.89,1.46-11.97,2.29-17.94,.69-4.96,4.03-7.36,8.1-8.33Z"/>
  <path class="cls-50" d="M656.17,299.44c11.26-18.77,22.66-37.46,33.75-56.33,14.46-24.6,29.35-48.92,45.58-72.4,3.2-4.64,6.91-8.95,11.35-12.46,2.3-1.82,5.38-3.19,7.92-.85,2.7,2.48,1.44,5.54-.2,8.32-10.91,18.49-23.34,35.96-35.54,53.59-19.27,27.84-38.42,55.77-57.62,83.67-1.06,1.91-3.03,3.06-4.07,5-.48,.89-1.16,1.77-2.38,1.35-1.25-.42-.99-1.49-.98-2.52,.02-2.68,1.42-4.93,2.17-7.38Z"/>
  <path class="cls-10" d="M483.34,918.13c-11.9,.03-22.94-11.15-23.07-23.37-.12-11.47,10.94-21.75,23.39-21.77,13.98-.01,24.48,9.59,24.28,22.21-.21,13.41-10.37,22.89-24.6,22.93Z"/>
  <path class="cls-10" d="M429.9,749.89c-1.36-13.08,11.65-21.24,21.13-21.68,13.31-.61,23.59,9.43,23.61,21.78,.02,13.14-9.97,22.04-24.68,21.96-10.64-.06-20.09-10.45-20.06-22.06Z"/>
  <path class="cls-4" d="M89.5,567.07c4.55,.04,8.45,3.11,10.28,8.26,1.42,4,3.57,4.24,7.23,3.6,17.11-3,34.4-4.15,51.76-4.18,1.39,0,2.77,.17,4.16,.27-1.31,.45-2.58,1.11-3.93,1.32-14.95,2.31-29.92,4.5-44.87,6.85-5.6,.88-10.8,1.82-15.14,6.79-5.73,6.55-11.55,6.57-19.71,2.32-2.08-1.08-4.2-.66-6.32-.08-9.73,2.65-19.45,5.37-29.21,7.89-2.94,.76-6.06,.84-9-.12-1.72-.57-3.95-1.28-3.85-3.54,.1-2.14,2.19-2.74,3.98-3.43,11.3-4.34,23.54-5.32,34.8-9.85,2.59-1.04,4.4-1.95,4.92-5.13,1.08-6.52,6.84-10.89,14.89-10.96Z"/>
  <path class="cls-60" d="M790.79,328.74c-1.38,.53-2.63,.58-3.08-1.16-.43-1.69-.07-3.27,1.54-4.13,26.67-14.26,52.42-30.09,78.51-45.36,4.85-2.84,9.74-5.61,14.75-8.15,1.73-.88,3.85-1.28,5.82-1.34,2.94-.1,4.19,2.42,5.14,4.59,.99,2.28-1.38,2.82-2.77,3.65-30.43,18.22-61.09,36.03-92.16,53.14-3.66,2.02-5.01-2.17-7.75-1.25Z"/>
  <path class="cls-16" d="M357.57,722.92c-12.13,24.85-25.32,49.14-38.99,73.16-14.13,24.83-28.57,49.48-45.18,72.77-1.28,1.79-2.31,3.4-4.78,1.7-2.24-1.55-2.99-3.25-1.38-5.77,7.13-11.2,14.41-22.32,21.23-33.71,12.66-21.14,26.16-41.77,38.38-63.19,8.55-14.99,18.05-29.43,27.13-44.12,.87-.52,1.19-1.46,1.73-2.23,.46-.65,1.17-.76,1.78-.32,.64,.46,.68,1.11,.07,1.71Z"/>
  <path class="cls-59" d="M98.86,195.08c10.15,.05,18.12,8.01,18.11,18.09-.02,11.12-8.51,19.82-19.23,19.68-10.55-.13-18.5-8.48-18.46-19.38,.04-10.95,8.02-18.44,19.58-18.39Z"/>
  <path class="cls-22" d="M768.92,638.92c16.67,6.43,32.55,14.56,48.53,22.49,12.79,6.35,25.63,12.59,38.38,19.02,14.26,7.2,28.45,14.55,42.66,21.86,2.38,1.22,3.5,3.29,2.31,5.76-1.56,3.23-4.5,2.93-7.09,1.61-11.71-5.92-23.39-11.9-34.98-18.05-14.13-7.49-28.18-15.15-42.24-22.77-16.71-9.06-33.41-18.16-50.11-27.24-.75-.69-1.66-1.51-.89-2.53,.95-1.27,2.26-.84,3.44-.14Z"/>
  <path class="cls-10" d="M986.26,464.57c.02,9.98-7.03,16.95-17.16,16.98-10.83,.03-18.45-7.25-18.36-17.53,.09-9.84,7.95-17.26,18.28-17.26,10.58,0,17.21,6.85,17.23,17.81Z"/>
  <path class="cls-31" d="M884.25,730.62c8.68-.16,16.56,7.53,16.81,16.42,.29,10.33-7.64,18.03-18.79,18.25-8.73,.17-16.07-7.64-16.2-17.26-.13-9.73,7.68-17.21,18.18-17.4Z"/>
  <path class="cls-46" d="M272.55,610.15c-15.64,12.46-33.51,21.32-50.76,31.15-13.16,7.49-26.62,14.47-40.04,21.5-1.83,.96-4.03,3.92-6.34,.7-2.36-3.29-.39-5.58,2.17-7.69,9.34-7.7,20.32-12.57,30.94-18.07,18.45-9.56,36.9-19.12,55.92-27.53,.92-.41,1.91-.63,2.87-.95q4.12-1.33,5.24,.89Z"/>
  <path class="cls-59" d="M919.51,208.26c9.36,.22,15.95,7.5,15.83,17.5-.09,8.3-8.02,15.54-16.79,15.33-9.81-.24-17-7.84-16.84-17.78,.14-8.49,8.16-15.28,17.79-15.05Z"/>
  <path class="cls-26" d="M397.68,782.24c-4.35,15.99-8.52,32.03-13.11,47.95-2.44,8.44-5.54,16.68-8.49,24.96-.88,2.47-2.58,4.43-5.61,3.24-2.83-1.12-2.61-3.63-1.88-5.9,9.7-30.35,19.45-60.68,29.2-91.01,.13-.4,.43-.74,.65-1.11,2.27-5.43,3.9-11.08,5.9-16.6,.35-.97,.26-2.74,1.84-2.45,1.9,.35,1.71,2.1,1.38,3.53-1.04,4.46-2.33,8.87-3.65,13.24-2.41,7.98-4.31,16.06-6.21,24.16Z"/>
  <path class="cls-14" d="M377.39,128.37c-9.86,0-16.11-6.16-16.06-15.81,.04-8.61,6.7-15.04,15.6-15.06,8.31-.02,15.29,7.13,15.27,15.64-.02,8.77-6.31,15.23-14.81,15.23Z"/>
  <path class="cls-56" d="M663.27,729.04c21.59,27.55,42.8,55.39,62.87,84.08,4.3,6.15,8.76,12.19,12.98,18.39,1.14,1.68,2.89,3.99,.54,5.77-2.24,1.69-3.69-.7-4.94-2.13-11.39-13.07-20.55-27.78-30.63-41.81-10.09-14.03-19.94-28.24-29.77-42.45-4.74-6.85-9.21-13.89-13.81-20.85-.42-.89-.88-2,.2-2.53,1.33-.65,1.75,.93,2.57,1.53Z"/>
  <path class="cls-5" d="M262.15,730.23c-4.12-.37-2.66-3.06-1.57-4.55,3.05-4.17,6.35-8.19,9.84-12.01,21.29-23.35,42.72-46.56,66.5-67.45,1.66-1.46,3.64-2.55,5.48-3.81-1.1,1.96-1.95,4.12-3.33,5.85-10.52,13.21-22.06,25.53-33.59,37.85-12.6,13.46-23.91,28.13-37.59,40.6-1.72,1.57-3.39,3.12-5.72,3.53Z"/>
  <path class="cls-28" d="M237.81,281.33c-1.18-1.07-2.37-2.14-3.55-3.21-2.25-2.17-4.13-4.75-6.96-6.28-17.36-15.91-34.71-31.82-52.09-47.71-1.81-1.65-3.72-3.19-5.63-4.73-2.89-2.33-2.85-4.56-.33-7.29,2.61-2.83,4.36-1.96,6.75,.37,18.48,18.1,37.14,36.02,54.77,54.98,1.56,1.68,3.01,3.45,4.51,5.19,4.53,5.58,10.3,9.98,14.81,15.57,.27,.3,.54,.6,.81,.89,.08,2.12-1.04,2.44-2.77,1.83l-3.43-3.3c-2.23-2.18-4.19-4.64-6.87-6.33Z"/>
  <path class="cls-34" d="M108.05,477.55c3.17,3.01,6.33,6.03,9.49,9.04-10.65,1.46-21.34,.57-32,.49-11.38-.08-22.79-.04-33.97-2.79-2.3-.57-5.01-.9-5.18-3.66-.15-2.46,2.58-2.22,4.27-2.76,11.82-3.76,23.94-3.27,36.04-2.25,7.12,.6,14.43-.89,21.35,1.92Z"/>
  <path class="cls-8" d="M586.71,769.99c4.9,12.79,9.76,25.6,14.71,38.38,8.92,23.05,14.63,47.1,21.96,70.65,.21,.69,.47,1.41,.46,2.11-.02,1.22,.81,3.09-.55,3.48-1.49,.44-1.73-1.55-2.24-2.65-8.36-17.95-14.75-36.62-20.44-55.55-5.22-17.38-10.38-34.78-15.56-52.17-.8-3.77-.67-4.11,1.66-4.25Z"/>
  <path class="cls-57" d="M711.82,685.65c24.66,20.21,49.54,40.16,73.43,61.29,2,1.77,3.21,3.97,1.12,6.42-2.22,2.6-4.23,.73-5.93-.77-18.68-16.59-37.5-33.03-55.08-50.81-4.77-4.83-9.64-9.55-14.47-14.33-.57-1.05-.56-1.8,.93-1.8Z"/>
  <path class="cls-27" d="M253.84,164.25c.05,7.56-5.54,13.47-12.77,13.51-6.68,.04-12.96-6.51-13.03-13.61-.08-6.87,6.24-13.08,13.34-13.11,7.03-.04,12.41,5.67,12.46,13.21Z"/>
  <path class="cls-57" d="M464.37,189.33c-5.27-23.01-10.52-46.03-15.82-69.04-.55-2.39-.5-4.51,2.28-5.13,2.97-.67,5.15,.52,5.7,3.71,2.32,13.47,4.63,26.95,6.87,40.44,1.27,7.67,2.41,15.37,3.6,23.05,1.08,2.8-.2,5.89,1.19,8.71,.41,.83,.57,2.47-.97,2.79-1.52,.32-1.62-1.26-2.15-2.17-.42-.72-.01-1.72-.71-2.38Z"/>
  <path class="cls-30" d="M641.99,115.78c6.69-.03,11.24,4.12,11.37,10.37,.15,7.02-4.87,12.68-11.27,12.68-6.58,0-11.19-4.95-11.26-12.1-.07-6.64,4.29-10.92,11.15-10.95Z"/>
  <path class="cls-48" d="M251.81,910.59c-.05,5.54-5.67,10.99-11.34,11.02-5.76,.03-11.07-5.31-11.07-11.13,0-6.4,4.92-11.45,11.13-11.43,6.87,.02,11.35,4.59,11.28,11.54Z"/>
  <path class="cls-44" d="M320.95,249.38c-9.4-12.57-16.84-26.35-24.87-39.78-5.03-8.42-10.06-16.83-15.08-25.25-.67-1.13-2.47-2.34-.74-3.61,1.29-.94,2.7,.13,3.79,1.21,7.93,7.81,13,17.53,18.21,27.17,6.9,12.75,13.84,25.48,20.77,38.22,.66,2.06-.31,2.47-2.09,2.04Z"/>
  <path class="cls-7" d="M380.26,903.49c-.03,7.01-3.57,11.54-8.99,11.51-5.75-.03-9.44-4.75-9.5-12.14-.05-6.15,4.13-11.16,9.18-11.02,5.95,.17,9.35,4.42,9.32,11.65Z"/>
  <path class="cls-12" d="M446,83.96c.08-5.46,4.8-9.61,10.72-9.43,5.88,.18,9.98,4.38,10,10.24,.01,5.67-5.55,11.05-11.24,10.86-4.76-.16-9.57-6.07-9.49-11.67Z"/>
  <path class="cls-15" d="M172.47,801.9c-5.26,.03-9.77-5.04-9.83-11.06-.06-6.13,4.24-10.8,9.93-10.76,4.77,.03,9.65,5.62,9.59,10.99-.06,5.54-4.76,10.79-9.69,10.82Z"/>
  <path class="cls-39" d="M172.07,327.15c0-6.22,4.06-10.16,10.39-10.09,5.71,.06,9.43,4,9.49,10.06,.06,5.66-4.18,9.99-9.7,9.89-6.16-.11-10.18-4.01-10.18-9.85Z"/>
  <path class="cls-9" d="M751.56,875.4c.16-6.03,4.77-10.84,10.17-10.6,5.44,.25,9.26,4.44,9.12,10-.15,5.84-4.67,10.52-10.03,10.37-5.55-.15-9.4-4.22-9.26-9.78Z"/>
  <path class="cls-54" d="M766.64,132.17c-6.04,.05-10.18-3.64-10.34-9.19-.15-5.34,4.59-10.15,10.07-10.21,5.09-.06,9.74,4.41,9.8,9.41,.07,5.75-3.94,9.95-9.52,9.99Z"/>
  <path class="cls-3" d="M907.83,588.66c-10.17-1.91-20.31-4.08-30.53-5.67-12.79-1.98-25.65-3.46-38.48-5.2-.55-.07-1.45,.65-1.61-.49-.01-.09,1.01-.5,1.54-.48,22.04,.54,44.07,1.26,65.73,5.93,2.18,.47,3.23-.02,4.43-2.01,5.9-9.74,16.08-10.14,22.99-1.02,2.92,3.85,3.31,8,.6,12.08-2.93,4.42-10.8,6.68-16.02,4.71-3.89-1.47-6.96-3.97-8.7-7.87,2.54-.99,3.52,1.34,4.96,2.48,4.42,3.48,10.49,4.11,14.94,1.37,4.51-2.78,5.23-7.31,1.8-11.33-5.83-6.83-12.81-6.77-17.95,.44-2.38,3.34-5.08,4.33-8.92,3.18-2.06-.61-4.21-.99-6.39-1.1-.72-.04-1.4-.3-2.12-.36,.77,.2,1.57,.33,2.34,.54,3.06,.81,6.3,1,9.18,2.42,.98,.48,2.78,.42,2.21,2.4Z"/>
  <path class="cls-55" d="M852.35,806.38c-5.74,.11-9.98-3.7-10.15-8.61-.16-4.45,4.98-10.59,9.03-10.79,3.5-.17,8.67,5.65,8.62,9.96-.06,5.29-2.48,8.76-7.5,9.44Z"/>
  <path class="cls-36" d="M896.23,481.32c2.7-2.92,5.41-5.83,8.11-8.75,3.48,2.26,7.31,.8,10.81,.49,8.35-.74,15.78,2.67,23.61,4.22,.4,.08,.77,.32,1.16,.49-.23,.2-.44,.56-.69,.59-14.29,1.6-28.49,4.51-43,2.95Z"/>
  <path class="cls-52" d="M642.66,942.49c-.43,1.35-.5,2.85-1.04,3.04-1.5,.53-1.61-1.16-2.26-2.01-7.13-9.24-8.4-20.63-11.48-31.36-.35-1.21-1.55-3,.5-3.7,1.46-.5,2.7,.64,3.54,1.95,2.86,4.45,4.02,9.58,5.65,14.49,1.95,5.87,3.46,11.89,5.09,17.59Z"/>
  <path class="cls-20" d="M397.68,782.24c.61-9.87,4.72-18.93,6.59-28.49,.75-3.86,4.27-7.33,1.89-11.69-2.54,3.23-2.89,7.31-4.28,10.99-.95,2.54-1.34,5.33-3.45,7.32,3.19-12.11,7.85-23.71,12.04-35.48,1.11-3.12,2.32-6.2,3.57-9.27,.24-.6,.88-1.03,1.34-1.54,.01,.65,.17,1.35,.01,1.96-3.29,12.83-6.53,25.67-9.94,38.46-2.47,9.28-5.17,18.5-7.77,27.75Z"/>
  <path class="cls-37" d="M768.92,638.92c-1.82-.04-3.83-.25-2.55,2.67-9.14-4.15-17.85-9.07-26.1-14.79-.45-.31-.74-.84-1.1-1.26,.52,.04,1.09-.04,1.55,.15,9.62,3.95,19.15,8.09,28.21,13.22Z"/>
  <path class="cls-23" d="M248.11,290.96c1.19-.21,2.26-.59,2.77-1.83,7.66,5.95,13.2,13.9,19.68,20.96,.26,.28,.59,.96,.53,1.01-.84,.7-1.28-.18-1.73-.6-7.1-6.5-14.17-13.02-21.25-19.53Z"/>
  <path class="cls-11" d="M464.37,189.33c1.73,.61,.75,4.16,2.87,3.43,1.39-.48-.24-2.82-.25-4.35,0-2.02,0-4.03,.02-6.05,2.21,8.91,2.68,18.04,3.38,27.14,.04,.47-.3,.97-.46,1.46-.34-.39-.88-.74-.98-1.19-1.56-6.81-3.06-13.63-4.57-20.45Z"/>
  <path class="cls-40" d="M663.27,729.04c-1.21-.47-2.85-2.14-2.76,1-4.02-6.09-8.05-12.18-12.02-18.3-.32-.49-.21-1.25-.31-1.88,.31,.28,.69,.52,.93,.86,4.55,6.24,10.44,11.45,14.16,18.33Z"/>
  <path class="cls-24" d="M320.95,249.38c1.19-.18,1.86-.89,2.09-2.04,3.23,5.76,6.47,11.51,9.66,17.29,.22,.4,.05,1.01,.07,1.53-.45-.35-1.02-.61-1.32-1.06-3.52-5.22-7-10.47-10.5-15.71Z"/>
  <path class="cls-19" d="M357.57,722.92c-1.95-2.93-2.11,1.79-3.59,.84,3.18-6.14,7.82-11.27,11.82-16.84,.19-.27,.64-.36,.97-.54-.04,.38,.02,.83-.15,1.14-2.92,5.19-5.09,10.82-9.05,15.39Z"/>
  <path class="cls-38" d="M711.82,685.65c-.31,.6-.62,1.2-.92,1.8-5.62-4.91-11.24-9.81-16.82-14.76-.47-.41-.64-1.16-.95-1.75,.36,.08,.82,.04,1.07,.24,5.89,4.8,11.76,9.64,17.63,14.46Z"/>
  <path class="cls-45" d="M586.71,769.99c-2.73,.57-.98,2.88-1.66,4.25-1.33-6.25-2.67-12.49-3.98-18.74-.08-.39,.06-.82,.09-1.23,.38,.34,.94,.6,1.11,1.02,1.97,4.75,4.07,9.47,4.43,14.7Z"/>
  <path class="cls-32" d="M272.55,610.15c-1.3-2.92-3.59,0-5.24-.89,3.77-1.63,7.52-3.29,11.32-4.85,.59-.24,1.37-.03,2.06-.03-.38,.67-.59,1.59-1.17,1.98-2.18,1.5-4.09,3.56-6.97,3.79Z"/>
  <path class="cls-23" d="M250.08,288.23c-5.3-4.85-10.93-9.38-14.81-15.57,5.46,4.69,10.72,9.58,14.81,15.57Z"/>
  <path class="cls-23" d="M237.81,281.33c3.41,.9,5.28,3.46,6.87,6.33-2.29-2.11-4.58-4.22-6.87-6.33Z"/>
  <path class="cls-23" d="M227.3,271.84c3.47,.81,5.33,3.42,6.96,6.28-2.32-2.09-4.64-4.18-6.96-6.28Z"/>
  <path class="cls-33" d="M329.3,595.56c-13.41-9.93-17.62-23.98-17.59-39.8,.05-25.21,12.2-45.64,26.88-64.63,19.25-24.89,43.47-43.87,72.05-57.19,2.07-.96,4.82-2.87,6.28-1.66,1.31,1.08-.92,3.79-1.78,5.66-13.53,29.48-6.36,55.84,11.99,80.55,2.17,.54,3.87,1.64,4.59,3.89,.02,.06-.09,.22-.17,.25-.12,.05-.28,.04-.42,.05,.06,1.76,1.41,2.77,2.34,4.04,1.53,2.08,3.73,1.33,5.59,1.07,2.09-.3,1.2-2.34,1.21-3.59,.37-34.51,10.27-65.93,30.66-93.84,4.65-6.36,10.05-12.17,15.21-18.15,.53-.62,1.75-.76,2.68-.91,21.94-3.4,43.94-3.69,66-1.32,3.86,.41,7.71,1.08,11.59,1.28,10.62,.56,17.41,6.24,22.98,15.02,18,28.35,32.06,58.43,41.84,90.54,.51,1.67,.28,4.41,2.37,4.55,2.05,.14,3.07-2.34,4.2-4,11.7-17.28,9.37-35.51,3.91-54.08-3.09-10.5-9.66-18.95-15.42-27.91-.7-1.1-2.54-2.28-1.35-3.71,1.45-1.73,2.97,.22,4.16,.83,18.91,9.69,35.93,21.89,49.88,38.09,5.07,7.98,4.28,16.92,3.67,25.63-.69,9.93-4.01,19.13-9.95,27.27-6.25,8.58-14.93,13.23-24.95,16.05-12.14,3.42-24.76,3.94-37.03,6.52-4.36,.91-5.46-.26-6.3-5.3-.06-4.92-.16-9.81-.99-14.69-.36-2.12-1.29-3.08-3.38-3.05-1.01,.02-2.02-.01-3.03-.01-37.42,0-74.84,0-112.25,0-6.3,0-6.31,.17-6.67,6.55-.47,8.14,1.25,16.09,1.79,24.12-.88,2.57-3.26,2.61-5.32,2.96-36.21,6.15-71.75,15.07-106.87,25.78-11.74,3.58-23.54,6.98-34.59,12.48-1.2,.6-2.48,.71-3.8,.67Z"/>
  <path class="cls-47" d="M67.77,343.8c-.04-.14-.06-.29-.11-.42-1.6-3.56-5.63-5.83-5.45-10.34,3.7,.94,7.49,1.64,11.1,2.87,32.13,10.99,64.61,20.77,97.71,28.43,25.86,5.98,51.72,11.99,77.53,18.18,37.92,9.1,75.36,19.78,110.87,36.24,7.82,3.63,15.1,8.41,22.74,12.45,3.14,1.66,1.52,2.69-.17,3.7-13.74,8.18-25.76,18.53-36.93,29.83-20.97,21.22-38.49,44.58-44,74.91-.8,4.38-1.05,8.86-1.55,13.29-.02,4.26-2.72,4.98-6.27,5.03-20.31,.31-40.56-.23-60.71-3.06-2.15-.3-4.32-.25-6.45-.55-1.59-.22-3.64,.05-3.89-2.43,13.34-7.06,26.56-14.33,37.56-24.89,2.84-2.73,6.88-4.78,6.78-9.64-6.03-5.82-14.05-6.62-21.63-7.97-9.68-1.73-19.23-4.07-28.76-6.33-9.82-2.33-19.79-3.93-29.47-7.13-11.07-3.66-21.36-8.86-31.78-13.82-12.58-5.99-24.28-13.46-34.76-22.69-8.25-7.28-15.84-15.18-22.12-24.3-2.99-4.34-3.78-9.32-5.09-14.18-.34-1.26-.25-2.61,.93-3.57,16.46,3.45,32.79,7.51,49.52,9.66,16.23,2.08,32.38,4.81,48.58,7.12,3.18,.45,6.15,2.19,9.49,1.58,6.12-.07,12.25-.14,18.3,1.05,.32,.06,.95,.28,.89-.37-.04-.37-.61-.55-.99-.75-5.76-2.99-11.43-6.15-17.54-8.44-13.92-5.23-27.82-10.53-41.02-17.42-21.55-11.24-41.78-24.54-61.01-39.4-2.98-2.31-6-4.68-10.2-3.47-3.21-.33-4.9-2.85-6.67-4.98-3.11-3.75-6.41-7.31-9.99-10.58-2.39-2.19-3.63-5.07-5.45-7.59Z"/>
  <path class="cls-47" d="M718.75,554.74c9.34-22.18,5.16-42.7-7.03-62.6-16.35-26.69-37.59-48.3-64.67-64.05-4.27-2.48-4.13-3.6,.24-5.9,31.24-16.45,64.65-26.72,98.59-35.74,38.21-10.16,77.07-17.55,115.25-27.72,26.59-7.08,53.06-14.77,78.89-24.4,2.14,2.95,1.32,5.63-.62,8.32-5.64,7.84-12.82,14.12-20.77,19.38-12.65,8.36-24.73,17.5-37.23,26.06-20.45,14-42.14,25.54-65.12,34.83-8.95,3.62-17.87,7.35-26.86,10.88-.53,.21-1.07,.39-1.61,.59,.29,.41,.74,.19,1.12,.28,5.47,1.27,11.03,1.16,16.58,1.17,.79-.07,1.57-.13,2.36-.2,1.45-.75,3.17,.24,4.58-.73,22.04-3.25,44.06-6.6,66.12-9.7,13.58-1.9,26.62-6.07,39.97-8.93,1.04-.22,2.11-.35,3.17-.51-.29,1.08-.57,2.16-.87,3.23-1.67,6.01-4.4,11.54-7.76,16.77-4.08,7.27-10.66,11.95-17.12,16.84-13.47,10.18-26.33,21.16-41.44,29.06-22.06,11.53-45.1,19.84-69.72,23.92-11.39,1.89-22.72,4.22-34,6.76-3.74,.84-5.97,3.26-7.99,6.12-.37,.53-.2,1.08,.48,1.34,14.67,16.17,32.65,27.48,52.65,35.81-.44,2.31-2.47,2.1-4.05,2.44-5.41,1.17-10.94,1.14-16.36,.67-16.12-1.4-32.25-.43-48.37-.76-1.58-.03-3.19,.06-4.74-.28-1.67-.37-3.49-.67-3.66-2.95Z"/>
  <path class="cls-29" d="M329.3,595.56c16.58-9.5,35.14-13.63,53.16-19.02,26.59-7.96,53.73-13.85,80.88-19.6,5.18-1.1,10.52-1.46,15.78-2.15,2.06,.5,2.46,2.26,2.93,3.92,5.92,21.32,21.59,32.17,41.63,37.42,10.92,2.86,22.43,2.67,33.55,.45,22.31-4.46,37.12-17.62,43.87-39.54,1.19-3.87,2.15-7.79,2.67-11.82,.16-1.21-.42-3.11,1.87-3.18,.06,1.93,.53,3.56,2.99,3.01,14.83-3.35,30.32-3.32,44.75-8.8,18.12-6.88,25.35-21.47,27.91-39.28,1.28-8.92,.06-17.73-2.31-26.39,13.32,12.58,23.25,27.6,29.56,44.62,6.05,16.32,4.28,31.89-8.81,44.79-7.46,7.36-16.12,13.11-25.53,17.6-25.76,12.32-53.24,18.94-81.2,23.66-42.27,7.13-84.64,13.26-127.61,14.53-26.28,.78-52.55,2.31-78.76-.59-18.46-2.05-36.5-5.88-52.57-15.95-1.69-1.06-3.18-2.45-4.76-3.68Z"/>
  <path class="cls-53" d="M431.14,522.68c-1.34-1.4-2.67-2.8-4-4.19,1.57-3.85-1.65-6.23-3.23-8.71-16.25-25.59-15.24-51.15-.63-76.94,1.8-3.17,4.28-5.29,7.54-6.76,11.8-5.3,24.1-8.79,36.93-10.42,1.07-.14,2.17,0,3.25,.02-.59,.94-1.05,1.99-1.78,2.8-11.89,13.18-21.93,27.52-27.91,44.41-6.43,18.14-9.15,36.87-8.95,56.08,.01,1.2,1.35,3.22-1.23,3.7Z"/>
  <path class="cls-35" d="M93.84,417.41c.4,8.63,3.71,16.12,9.13,22.71,17.69,21.52,40.47,35.71,65.55,47.26,20.28,9.33,41.94,12.55,63.17,17.91,9.73,2.45,19.8,3.31,29.3,6.75,2.82,1.02,4.8,2.43,5.52,5.37-22.06,1.29-43.78-1.16-65.32-5.75-28.44-6.06-54.34-17.33-76.21-36.96-17.22-15.44-29.04-34.55-38.03-55.6-.35-.81-.37-2.61-.11-2.7,2.44-.84,4.75,.03,7,1.01Z"/>
  <path class="cls-41" d="M743.27,519.82c-1.54-3.42,.79-7.27,5.53-8.28,13.21-2.81,26.46-5.42,39.7-8.05,15.45-3.07,30.56-6.98,45.07-13.44,14.23-6.33,28.51-12.67,40.69-22.3,13.14-10.38,27.59-19.26,38.81-31.99-10.16,19.93-24.55,36.21-42.83,48.98-32.36,22.59-69.27,30.46-107.82,32.79-5.47,.33-10.96,.25-16.43,.48-1.11,.05-3.29-.99-2.72,1.81Z"/>
  <path class="cls-13" d="M805.51,435.85c-7.05,2.68-14.07-.01-21.1-.14-.22,0-.42-.55-.64-.84,.62-.32,1.21-.71,1.86-.96,16.79-6.39,33.32-13.4,49.73-20.73,15.58-6.96,29.99-15.85,44.06-25.3,14.56-9.78,28.88-19.91,43.06-30.23,5.09-3.71,9.52-8.34,14.1-12.71,2.98-2.84,4.17-6.46,3.43-10.6l3.98-1.1c.97-.22,2.07-.71,2.12,1.01-20.88,33.53-51.81,55.9-84.84,75.75-17.58,10.57-36.3,18.88-56.07,24.63-.77,.22-1.49,.58-2.24,.88,.85,.11,1.7,.23,2.55,.34Z"/>
  <path class="cls-18" d="M643.13,490.62c-.52,8.65-1.5,15.75-5.66,22-.36,.54-.93,.95-1.4,1.43-.22-.62-.5-1.23-.65-1.87-7.28-31.66-19.64-61.12-37.87-88.07-.68-1.01-2.36-2.16-1.43-3.24,.91-1.06,2.32,.38,3.44,.9,24.31,11.35,34.28,33.26,41.6,56.98,1.3,4.22,1.49,8.78,1.97,11.86Z"/>
  <path class="cls-6" d="M222.18,551.94c7.04,.9,14.08,1.86,21.13,2.69,17.35,2.06,34.77,1.73,52.19,1.87,3.01,.03,2.8-2.24,3.99-3.57-.04,1.73-.15,3.45-.12,5.18,.16,9.5,.2,9.72-9.58,11.03-23.65,3.17-47.06,3.13-69.41-6.87-3.11-1.39-5.9-3.48-8.84-5.24,2.99-1.54,5.97-3.1,8.98-4.62,.5-.25,1.1-.32,1.65-.48Z"/>
  <path class="cls-35" d="M89.58,366.3c3.06-2.74,5.71-.74,8.09,.98,12.8,9.27,25.49,18.67,38.92,27.07,16.62,10.39,33.88,19.38,52.18,26.42,11.27,4.33,22.67,8.4,33.04,14.76,.93,.57,2.42,.97,2.1,2.3-.09,.39-2.02,.6-3.06,.48-6.48-.78-12.95-1.67-19.43-2.53,1-.09,1.99-.18,2.99-.27-.93-.46-1.81-1.06-2.78-1.36-28.07-8.42-53.55-22.09-77.51-38.68-9.56-6.62-19.24-13.18-27.63-21.36-2.75-2.21-6.66-3.39-6.92-7.81Z"/>
  <path class="cls-58" d="M718.75,554.74c1.52,1.73,3.56,1.67,5.6,1.67,10.99,0,21.98,.16,32.96-.05,11.94-.22,23.87,2.38,35.81,.04,.95-.19,1.88-.51,2.81-.77,3.61,1.08,1.37,2.09-.07,3-10.69,6.79-22.65,9.88-35.02,11.34-15.48,1.83-30.97,1.97-46.38-1.11-3.67-.73-5.98-.98-2.09-4.97,2.56-2.63,4.29-6.07,6.39-9.15Z"/>
  <path class="cls-25" d="M89.58,366.3c2.31,2.6,4.61,5.2,6.92,7.81-3.9-.1-5.91-3.31-8.44-5.43-6.61-5.54-12.45-11.86-17.9-18.56-1.57-1.92-1.62-4.2-2.4-6.31,7.27,7.5,14.54,15,21.82,22.5Z"/>
  <path class="cls-17" d="M946.11,334.24c-.71-.34-1.41-.67-2.12-1.01,.35-.23,.68-.6,1.06-.68,1.53-.32,1.97-2.56,3.87-2.18-.73,1.44-1.17,3.09-2.82,3.87Z"/>
  <path class="cls-13" d="M812.45,434.91c-1.33,1.46-2.99,.88-4.58,.73,1.53-.24,3.05-.49,4.58-.73Z"/>
  <path class="cls-21" d="M907.83,588.66c-4.9-2.91-10.55-3.16-15.89-4.5-.95-.24-2.77,.61-2.5-1.3,.19-1.39,1.7-1.28,2.88-1.07,1.13,.2,2.25,.43,3.37,.67,7.01,1.48,13.16,2.73,18.33-5.28,3.36-5.21,11.11-2.93,16.69,3.33,3.49,3.91,3.27,7.9-.14,11.58-4.12,4.44-13.05,4.67-17.9,.7-1.65-1.35-3.26-2.76-4.89-4.15,0,0,.05,.03,.05,.03Z"/>
  <path class="cls-1" d="M605.64,542.04c-1.8,14.11-5.81,27.5-15.65,38.1-16.43,17.68-37.67,21.62-60.36,18.27-24.13-3.57-42.23-15.46-49.1-40.48-.3-1.1-.93-2.1-1.41-3.15-2.25-9.45-2.96-19.04-2.47-28.73,.15-2.96,1.22-4.38,4.75-4.38,39.89,.07,79.78-.04,119.67-.22,3.23-.01,4.28,.93,4.21,4.16-.11,5.47,.21,10.95,.35,16.43Z"/>
  <path class="cls-51" d="M492.17,573.87c-10.75-14.13-13.1-30.38-11.97-47.51,.14-2.12,1.53-2.12,3.02-2.12,38.42,0,76.83,0,115.25,0,1.32,0,2.36,.07,2.91,1.81,4.38,13.82-3.59,41.42-14.66,50.31-1.01-1.89-1.05-4.18-2.48-5.9-1.18-3.41-5.13-5.13-5.56-9.01-.95-4.52-4.94-6.34-8.24-8.19-13.61-7.64-28.02-9.41-43.28-5.4-13.85,3.64-24.05,11.87-31.92,23.47-.77,1.13-1.19,2.74-3.08,2.54Z"/>
  <path class="cls-43" d="M585.15,570.23c1.57,1.78,2.6,3.7,1.57,6.14-13.54,14.22-30.25,19.79-49.65,18.8-12.95-.66-24.44-5.03-35.16-11.95-3.2-2.02-5.68-4.77-7.94-7.76h.01c-.1-4.01,2.9-6.47,5.01-9.21,9.18-11.93,21.69-17.95,36.35-20.39,4.97-.82,9.7-.59,14.53,.23,3.73,3.03,8.28,4.5,12.54,6.49,8.93,4.16,16.16,10.46,22.73,17.64Z"/>
  <path class="cls-49" d="M550.32,546.93c-24.88-2.52-43.59,7.13-56.34,28.55-.6-.53-1.21-1.07-1.81-1.6,10.23-17.29,25.24-27.59,45.3-29.06,15.84-1.16,30.67,2.29,42.19,14.48,.61,.65,2.15,1.19,1.08,2.54-.16,.2-1.06-.2-1.62-.33-.29,.02-.64,.08-.84-.08-8.2-6.99-17.84-11.19-27.95-14.49Z"/>
  <path class="cls-49" d="M493.97,575.46c2.64,2.59,5.29,5.17,7.94,7.76-3.89-1.31-6.37-4.07-7.94-7.76Z"/>
  <path class="cls-42" d="M550.32,546.93c11.32,1.45,20.97,6.22,28.79,14.58,1.71,3.12,5.14,5.04,6.04,8.72-5.26-1.76-7.63-7.05-12.09-9.85-5.25-3.29-10.21-6.94-16.4-8.58-2.5-.66-4.75-2.56-6.34-4.87Z"/>
  <path class="cls-39" d="M820.94,202.86c0-7.84,5.12-12.8,13.09-12.73,7.19,.07,11.89,5.04,11.97,12.68,.08,7.14-5.27,12.59-12.23,12.46-7.76-.14-12.84-5.05-12.83-12.42Z"/>
  <path class="cls-55" d="M110.29,679.05c-5.74,.11-9.98-3.7-10.15-8.61-.16-4.45,4.98-10.59,9.03-10.79,3.5-.17,8.67,5.65,8.62,9.96-.06,5.29-2.48,8.76-7.5,9.44Z"/>
</svg>