<?xml version="1.0" encoding="UTF-8"?>
<svg id="Ebene_2" data-name="Ebene 2" xmlns="http://www.w3.org/2000/svg" viewBox="0 0 1000 1000">
  <defs>
    <style>
      .cls-1 {
        fill: #450b0c;
      }

      .cls-2 {
        fill: #440202;
      }

      .cls-3 {
        fill: #dad2c7;
      }

      .cls-4 {
        fill: #dbd3c7;
      }

      .cls-5 {
        fill: #dbc9c2;
      }

      .cls-6 {
        fill: #f18104;
      }

      .cls-7 {
        fill: #65372e;
      }

      .cls-8 {
        fill: #fb9500;
      }

      .cls-9 {
        fill: #fcc768;
      }

      .cls-10 {
        fill: #d5cbbf;
      }

      .cls-11 {
        fill: #d6cec2;
      }

      .cls-12 {
        fill: #cf6f93;
      }

      .cls-13 {
        fill: #fc90c2;
      }

      .cls-14 {
        fill: #f9f0ec;
      }

      .cls-15 {
        fill: #621c34;
      }

      .cls-16 {
        fill: #8d4e7b;
      }

      .cls-17 {
        fill: #fb8a01;
      }

      .cls-18 {
        fill: #d8cfc2;
      }

      .cls-19 {
        fill: #90d6ff;
      }
    </style>
  </defs>
  <rect class="cls-19" x="2" y="2" width="1000" height="1000"/>
  <path class="cls-2" d="M108.38,477.2c-12.01-12.66-21.85-27.35-28.86-43.44-4.24-9.74-7.44-19.98-9.17-30.47-.87-5.32,.17-6.22,5.13-4.68,13.38,4.15,27.01,7.31,40.83,9.63,.92,.15,1.87,.13,2.81,.19-.74-.65-1.41-1.4-2.22-1.95-24.87-16.7-46.49-36.88-64.9-60.49-7.27-9.32-14.5-18.66-21.56-28.14-1.52-2.04-4.4-4.67-2.49-7.14,1.67-2.18,4.92-.34,7.33,.39,23.74,7.27,47.47,14.54,71.16,21.97,37.5,11.76,75.6,21.13,113.95,29.63,44.12,9.77,88.1,20.22,129.88,37.96,16.14,6.86,32.32,13.88,46.31,24.81,1.72,1.34,2.77,.07,3.83-.47,19.75-10.18,40.49-17.76,62.16-22.41,33.28-7.14,66.8-9.89,100.81-4.79,21.7,3.25,42,10,61.18,20.45,1.99,1.08,3.62,.47,5.25-.57,26.41-16.88,55.54-27.37,85.33-36.28,39.43-11.79,79.7-20.19,119.7-29.66,33.74-7.99,66.86-18.07,99.7-29.17,12.7-4.29,25.66-7.81,37.86-13.5,1.09-.51,2.46-.43,3.71-.62-.27,1.05-.47,2.14-.83,3.16-6.39,17.98-17.88,32.79-29.85,47.19-15.41,18.54-34.12,33.51-53.46,47.72-.78,.58-1.36,1.43-2.04,2.15,.93-.09,1.89-.09,2.8-.3,12.94-2.97,25.92-5.76,38.78-9.04,5.5-1.4,6.71,.86,6.43,5.56-.38,6.44-2.62,12.41-4.83,18.4-7.12,19.25-17.64,37.33-31.56,52.53-21.05,22.98-50.15,37.84-79.9,46.08-8.03,2.22-16.17,4-24.38,5.41-5.24,.9-10.61,.99-15.9,1.66-1.6,.2-4.23-.5-4.6,1.15-.4,1.77,2.24,2.16,3.66,3,12.26,7.23,25.6,11.99,38.88,16.89,2.14,.79,4.89,1.23,5.22,3.91,.34,2.78-2.14,4.21-4.1,5.67-30.24,22.45-64.33,28.48-100.97,23.63-3-.4-6.16-.36-8.97-1.32-9.58-3.29-17.51-.23-25.91,4.55-20.91,11.9-43.97,18.09-67.29,23.18-38.49,8.4-77.45,14.05-116.66,17.36-40.25,3.39-80.64,6.34-120.97,.74-21.37-2.97-41.79-8.82-59.2-22.45-7.11-5.57-12.19-12.65-15.76-20.84-1.13-2.61-2.55-3.12-5.31-2.63-26.82,4.79-53.41,4.84-79.29-4.96-12.5-4.73-24.03-11.24-33.93-20.41-2.2-2.03-2.9-2.79,.64-4.32,14.57-6.28,29.84-10.98,43.61-19.07,1.15-.68,3.1-.91,2.82-2.68-.07-.45-2.22-.72-3.44-.84-31.36-3.08-63.74-10.67-90.79-27.41-11.25-6.96-21.55-15.36-30.62-24.91Z"/>
  <path class="cls-9" d="M329.3,595.56c-13.41-9.93-17.62-23.98-17.59-39.8,.05-25.21,12.2-45.64,26.88-64.63,19.25-24.89,43.47-43.87,72.05-57.19,2.07-.96,4.82-2.87,6.28-1.66,1.31,1.08-.92,3.79-1.78,5.66-13.53,29.48-6.36,55.84,11.99,80.55,2.17,.54,3.87,1.64,4.59,3.89,.02,.06-.09,.22-.17,.25-.12,.05-.28,.04-.42,.05,.06,1.76,1.41,2.77,2.34,4.04,1.53,2.08,3.73,1.33,5.59,1.07,2.09-.3,1.2-2.34,1.21-3.59,.37-34.51,10.27-65.93,30.66-93.84,4.65-6.36,10.05-12.17,15.21-18.15,.53-.62,1.75-.76,2.68-.91,21.94-3.4,43.94-3.69,66-1.32,3.86,.41,7.71,1.08,11.59,1.28,10.62,.56,17.41,6.24,22.98,15.02,18,28.35,32.06,58.43,41.84,90.54,.51,1.67,.28,4.41,2.37,4.55,2.05,.14,3.07-2.34,4.2-4,11.7-17.28,9.37-35.51,3.91-54.08-3.09-10.5-9.66-18.95-15.42-27.91-.7-1.1-2.54-2.28-1.35-3.71,1.45-1.73,2.97,.22,4.16,.83,18.91,9.69,35.93,21.89,49.88,38.09,5.07,7.98,4.28,16.92,3.67,25.63-.69,9.93-4.01,19.13-9.95,27.27-6.25,8.58-14.93,13.23-24.95,16.05-12.14,3.42-24.76,3.94-37.03,6.52-4.36,.91-5.46-.26-6.3-5.3-.06-4.92-.16-9.81-.99-14.69-.36-2.12-1.29-3.08-3.38-3.05-1.01,.02-2.02-.01-3.03-.01-37.42,0-74.84,0-112.25,0-6.3,0-6.31,.17-6.67,6.55-.47,8.14,1.25,16.09,1.79,24.12-.88,2.57-3.26,2.61-5.32,2.96-36.21,6.15-71.75,15.07-106.87,25.78-11.74,3.58-23.54,6.98-34.59,12.48-1.2,.6-2.48,.71-3.8,.67Z"/>
  <path class="cls-14" d="M67.77,343.8c-.04-.14-.06-.29-.11-.42-1.6-3.56-5.63-5.83-5.45-10.34,3.7,.94,7.49,1.64,11.1,2.87,32.13,10.99,64.61,20.77,97.71,28.43,25.86,5.98,51.72,11.99,77.53,18.18,37.92,9.1,75.36,19.78,110.87,36.24,7.82,3.63,15.1,8.41,22.74,12.45,3.14,1.66,1.52,2.69-.17,3.7-13.74,8.18-25.76,18.53-36.93,29.83-20.97,21.22-38.49,44.58-44,74.91-.8,4.38-1.05,8.86-1.55,13.29-.02,4.26-2.72,4.98-6.27,5.03-20.31,.31-40.56-.23-60.71-3.06-2.15-.3-4.32-.25-6.45-.55-1.59-.22-3.64,.05-3.89-2.43,13.34-7.06,26.56-14.33,37.56-24.89,2.84-2.73,6.88-4.78,6.78-9.64-6.03-5.82-14.05-6.62-21.63-7.97-9.68-1.73-19.23-4.07-28.76-6.33-9.82-2.33-19.79-3.93-29.47-7.13-11.07-3.66-21.36-8.86-31.78-13.82-12.58-5.99-24.28-13.46-34.76-22.69-8.25-7.28-15.84-15.18-22.12-24.3-2.99-4.34-3.78-9.32-5.09-14.18-.34-1.26-.25-2.61,.93-3.57,16.46,3.45,32.79,7.51,49.52,9.66,16.23,2.08,32.38,4.81,48.58,7.12,3.18,.45,6.15,2.19,9.49,1.58,6.12-.07,12.25-.14,18.3,1.05,.32,.06,.95,.28,.89-.37-.04-.37-.61-.55-.99-.75-5.76-2.99-11.43-6.15-17.54-8.44-13.92-5.23-27.82-10.53-41.02-17.42-21.55-11.24-41.78-24.54-61.01-39.4-2.98-2.31-6-4.68-10.2-3.47-3.21-.33-4.9-2.85-6.67-4.98-3.11-3.75-6.41-7.31-9.99-10.58-2.39-2.19-3.63-5.07-5.45-7.59Z"/>
  <path class="cls-14" d="M718.75,554.74c9.34-22.18,5.16-42.7-7.03-62.6-16.35-26.69-37.59-48.3-64.67-64.05-4.27-2.48-4.13-3.6,.24-5.9,31.24-16.45,64.65-26.72,98.59-35.74,38.21-10.16,77.07-17.55,115.25-27.72,26.59-7.08,53.06-14.77,78.89-24.4,2.14,2.95,1.32,5.63-.62,8.32-5.64,7.84-12.82,14.12-20.77,19.38-12.65,8.36-24.73,17.5-37.23,26.06-20.45,14-42.14,25.54-65.12,34.83-8.95,3.62-17.87,7.35-26.86,10.88-.53,.21-1.07,.39-1.61,.59,.29,.41,.74,.19,1.12,.28,5.47,1.27,11.03,1.16,16.58,1.17,.79-.07,1.57-.13,2.36-.2,1.45-.75,3.17,.24,4.58-.73,22.04-3.25,44.06-6.6,66.12-9.7,13.58-1.9,26.62-6.07,39.97-8.93,1.04-.22,2.11-.35,3.17-.51-.29,1.08-.57,2.16-.87,3.23-1.67,6.01-4.4,11.54-7.76,16.77-4.08,7.27-10.66,11.95-17.12,16.84-13.47,10.18-26.33,21.16-41.44,29.06-22.06,11.53-45.1,19.84-69.72,23.92-11.39,1.89-22.72,4.22-34,6.76-3.74,.84-5.97,3.26-7.99,6.12-.37,.53-.2,1.08,.48,1.34,14.67,16.17,32.65,27.48,52.65,35.81-.44,2.31-2.47,2.1-4.05,2.44-5.41,1.17-10.94,1.14-16.36,.67-16.12-1.4-32.25-.43-48.37-.76-1.58-.03-3.19,.06-4.74-.28-1.67-.37-3.49-.67-3.66-2.95Z"/>
  <path class="cls-8" d="M329.3,595.56c16.58-9.5,35.14-13.63,53.16-19.02,26.59-7.96,53.73-13.85,80.88-19.6,5.18-1.1,10.52-1.46,15.78-2.15,2.06,.5,2.46,2.26,2.93,3.92,5.92,21.32,21.59,32.17,41.63,37.42,10.92,2.86,22.43,2.67,33.55,.45,22.31-4.46,37.12-17.62,43.87-39.54,1.19-3.87,2.15-7.79,2.67-11.82,.16-1.21-.42-3.11,1.87-3.18,.06,1.93,.53,3.56,2.99,3.01,14.83-3.35,30.32-3.32,44.75-8.8,18.12-6.88,25.35-21.47,27.91-39.28,1.28-8.92,.06-17.73-2.31-26.39,13.32,12.58,23.25,27.6,29.56,44.62,6.05,16.32,4.28,31.89-8.81,44.79-7.46,7.36-16.12,13.11-25.53,17.6-25.76,12.32-53.24,18.94-81.2,23.66-42.27,7.13-84.64,13.26-127.61,14.53-26.28,.78-52.55,2.31-78.76-.59-18.46-2.05-36.5-5.88-52.57-15.95-1.69-1.06-3.18-2.45-4.76-3.68Z"/>
  <path class="cls-17" d="M431.14,522.68c-1.34-1.4-2.67-2.8-4-4.19,1.57-3.85-1.65-6.23-3.23-8.71-16.25-25.59-15.24-51.15-.63-76.94,1.8-3.17,4.28-5.29,7.54-6.76,11.8-5.3,24.1-8.79,36.93-10.42,1.07-.14,2.17,0,3.25,.02-.59,.94-1.05,1.99-1.78,2.8-11.89,13.18-21.93,27.52-27.91,44.41-6.43,18.14-9.15,36.87-8.95,56.08,.01,1.2,1.35,3.22-1.23,3.7Z"/>
  <path class="cls-10" d="M93.84,417.41c.4,8.63,3.71,16.12,9.13,22.71,17.69,21.52,40.47,35.71,65.55,47.26,20.28,9.33,41.94,12.55,63.17,17.91,9.73,2.45,19.8,3.31,29.3,6.75,2.82,1.02,4.8,2.43,5.52,5.37-22.06,1.29-43.78-1.16-65.32-5.75-28.44-6.06-54.34-17.33-76.21-36.96-17.22-15.44-29.04-34.55-38.03-55.6-.35-.81-.37-2.61-.11-2.7,2.44-.84,4.75,.03,7,1.01Z"/>
  <path class="cls-11" d="M743.27,519.82c-1.54-3.42,.79-7.27,5.53-8.28,13.21-2.81,26.46-5.42,39.7-8.05,15.45-3.07,30.56-6.98,45.07-13.44,14.23-6.33,28.51-12.67,40.69-22.3,13.14-10.38,27.59-19.26,38.81-31.99-10.16,19.93-24.55,36.21-42.83,48.98-32.36,22.59-69.27,30.46-107.82,32.79-5.47,.33-10.96,.25-16.43,.48-1.11,.05-3.29-.99-2.72,1.81Z"/>
  <path class="cls-4" d="M805.51,435.85c-7.05,2.68-14.07-.01-21.1-.14-.22,0-.42-.55-.64-.84,.62-.32,1.21-.71,1.86-.96,16.79-6.39,33.32-13.4,49.73-20.73,15.58-6.96,29.99-15.85,44.06-25.3,14.56-9.78,28.88-19.91,43.06-30.23,5.09-3.71,9.52-8.34,14.1-12.71,2.98-2.84,4.17-6.46,3.43-10.6l3.98-1.1c.97-.22,2.07-.71,2.12,1.01-20.88,33.53-51.81,55.9-84.84,75.75-17.58,10.57-36.3,18.88-56.07,24.63-.77,.22-1.49,.58-2.24,.88,.85,.11,1.7,.23,2.55,.34Z"/>
  <path class="cls-6" d="M643.13,490.62c-.52,8.65-1.5,15.75-5.66,22-.36,.54-.93,.95-1.4,1.43-.22-.62-.5-1.23-.65-1.87-7.28-31.66-19.64-61.12-37.87-88.07-.68-1.01-2.36-2.16-1.43-3.24,.91-1.06,2.32,.38,3.44,.9,24.31,11.35,34.28,33.26,41.6,56.98,1.3,4.22,1.49,8.78,1.97,11.86Z"/>
  <path class="cls-3" d="M222.18,551.94c7.04,.9,14.08,1.86,21.13,2.69,17.35,2.06,34.77,1.73,52.19,1.87,3.01,.03,2.8-2.24,3.99-3.57-.04,1.73-.15,3.45-.12,5.18,.16,9.5,.2,9.72-9.58,11.03-23.65,3.17-47.06,3.13-69.41-6.87-3.11-1.39-5.9-3.48-8.84-5.24,2.99-1.54,5.97-3.1,8.98-4.62,.5-.25,1.1-.32,1.65-.48Z"/>
  <path class="cls-10" d="M89.58,366.3c3.06-2.74,5.71-.74,8.09,.98,12.8,9.27,25.49,18.67,38.92,27.07,16.62,10.39,33.88,19.38,52.18,26.42,11.27,4.33,22.67,8.4,33.04,14.76,.93,.57,2.42,.97,2.1,2.3-.09,.39-2.02,.6-3.06,.48-6.48-.78-12.95-1.67-19.43-2.53,1-.09,1.99-.18,2.99-.27-.93-.46-1.81-1.06-2.78-1.36-28.07-8.42-53.55-22.09-77.51-38.68-9.56-6.62-19.24-13.18-27.63-21.36-2.75-2.21-6.66-3.39-6.92-7.81Z"/>
  <path class="cls-18" d="M718.75,554.74c1.52,1.73,3.56,1.67,5.6,1.67,10.99,0,21.98,.16,32.96-.05,11.94-.22,23.87,2.38,35.81,.04,.95-.19,1.88-.51,2.81-.77,3.61,1.08,1.37,2.09-.07,3-10.69,6.79-22.65,9.88-35.02,11.34-15.48,1.83-30.97,1.97-46.38-1.11-3.67-.73-5.98-.98-2.09-4.97,2.56-2.63,4.29-6.07,6.39-9.15Z"/>
  <path class="cls-7" d="M89.58,366.3c2.31,2.6,4.61,5.2,6.92,7.81-3.9-.1-5.91-3.31-8.44-5.43-6.61-5.54-12.45-11.86-17.9-18.56-1.57-1.92-1.62-4.2-2.4-6.31,7.27,7.5,14.54,15,21.82,22.5Z"/>
  <path class="cls-5" d="M946.11,334.24c-.71-.34-1.41-.67-2.12-1.01,.35-.23,.68-.6,1.06-.68,1.53-.32,1.97-2.56,3.87-2.18-.73,1.44-1.17,3.09-2.82,3.87Z"/>
  <path class="cls-4" d="M812.45,434.91c-1.33,1.46-2.99,.88-4.58,.73,1.53-.24,3.05-.49,4.58-.73Z"/>
  <path class="cls-1" d="M605.64,542.04c-1.8,14.11-5.81,27.5-15.65,38.1-16.43,17.68-37.67,21.62-60.36,18.27-24.13-3.57-42.23-15.46-49.1-40.48-.3-1.1-.93-2.1-1.41-3.15-2.25-9.45-2.96-19.04-2.47-28.73,.15-2.96,1.22-4.38,4.75-4.38,39.89,.07,79.78-.04,119.67-.22,3.23-.01,4.28,.93,4.21,4.16-.11,5.47,.21,10.95,.35,16.43Z"/>
  <path class="cls-16" d="M492.17,573.87c-10.75-14.13-13.1-30.38-11.97-47.51,.14-2.12,1.53-2.12,3.02-2.12,38.42,0,76.83,0,115.25,0,1.32,0,2.36,.07,2.91,1.81,4.38,13.82-3.59,41.42-14.66,50.31-1.01-1.89-1.05-4.18-2.48-5.9-1.18-3.41-5.13-5.13-5.56-9.01-.95-4.52-4.94-6.34-8.24-8.19-13.61-7.64-28.02-9.41-43.28-5.4-13.85,3.64-24.05,11.87-31.92,23.47-.77,1.13-1.19,2.74-3.08,2.54Z"/>
  <path class="cls-13" d="M585.15,570.23c1.57,1.78,2.6,3.7,1.57,6.14-13.54,14.22-30.25,19.79-49.65,18.8-12.95-.66-24.44-5.03-35.16-11.95-3.2-2.02-5.68-4.77-7.94-7.76h.01c-.1-4.01,2.9-6.47,5.01-9.21,9.18-11.93,21.69-17.95,36.35-20.39,4.97-.82,9.7-.59,14.53,.23,3.73,3.03,8.28,4.5,12.54,6.49,8.93,4.16,16.16,10.46,22.73,17.64Z"/>
  <path class="cls-15" d="M550.32,546.93c-24.88-2.52-43.59,7.13-56.34,28.55-.6-.53-1.21-1.07-1.81-1.6,10.23-17.29,25.24-27.59,45.3-29.06,15.84-1.16,30.67,2.29,42.19,14.48,.61,.65,2.15,1.19,1.08,2.54-.16,.2-1.06-.2-1.62-.33-.29,.02-.64,.08-.84-.08-8.2-6.99-17.84-11.19-27.95-14.49Z"/>
  <path class="cls-15" d="M493.97,575.46c2.64,2.59,5.29,5.17,7.94,7.76-3.89-1.31-6.37-4.07-7.94-7.76Z"/>
  <path class="cls-12" d="M550.32,546.93c11.32,1.45,20.97,6.22,28.79,14.58,1.71,3.12,5.14,5.04,6.04,8.72-5.26-1.76-7.63-7.05-12.09-9.85-5.25-3.29-10.21-6.94-16.4-8.58-2.5-.66-4.75-2.56-6.34-4.87Z"/>
</svg>